<svg width="65" height="65" viewBox="0 0 65 65" fill="none" xmlns="http://www.w3.org/2000/svg">
<g clip-path="url(#clip0_12_67)">
<path d="M53.1817 8.85816C53.1832 9.77273 52.7596 10.6575 52 11.2274L50.2272 12.5569L47.2726 14.7729L28.3636 28.9546C27.8383 29.3485 27.2147 29.5456 26.5908 29.5456C25.967 29.5456 25.3434 29.3485 24.8181 28.9546L5.90903 14.7728L2.95458 12.5568L1.18181 11.2272C0.422246 10.6572 -0.00139648 9.77248 0.000126953 8.85803C0.000253906 8.85994 0 8.86184 0 8.86362V44.3182C0 45.9499 1.32285 47.2728 2.95458 47.2728H11.8182H14.7728H17.7274H26.591H50.2274C51.8591 47.2728 53.1819 45.9499 53.1819 44.3182V23.6364V20.6818V17.7272V8.86362C53.1818 8.86184 53.1817 8.85994 53.1817 8.85816Z" fill="#F6E27D"/>
<path d="M53.1679 8.58496C53.1651 8.55715 53.161 8.52986 53.1574 8.50218C53.1502 8.44175 53.1411 8.38183 53.13 8.32254C53.1233 8.28585 53.1158 8.2498 53.1078 8.21324C53.0966 8.1636 53.0836 8.11472 53.07 8.06584C53.0589 8.02738 53.0492 7.98878 53.0365 7.95057C53.034 7.94346 53.0325 7.93622 53.0304 7.92924C53.0153 7.88392 52.9971 7.84025 52.98 7.79607C52.9626 7.75138 52.9451 7.7072 52.926 7.66366C52.8978 7.60107 52.8688 7.53861 52.8368 7.4783C52.8214 7.44949 52.8045 7.42219 52.7883 7.39363C52.7597 7.34475 52.731 7.29587 52.7002 7.24865C52.6824 7.22161 52.664 7.19545 52.6458 7.16905C52.6119 7.12093 52.5766 7.07409 52.5402 7.028C52.5224 7.00553 52.5048 6.98293 52.4866 6.96097C52.4409 6.90663 52.3928 6.8542 52.3433 6.80342C52.3321 6.79174 52.322 6.77994 52.3108 6.76876C52.2494 6.7077 52.1855 6.64981 52.1191 6.59446C52.0995 6.57833 52.0794 6.56373 52.0594 6.54799C52.0119 6.51041 51.9637 6.47372 51.9138 6.43907C51.8856 6.41939 51.8571 6.40111 51.8281 6.38232C51.7839 6.3535 51.7391 6.32671 51.6934 6.30056C51.6621 6.28241 51.6308 6.26438 51.5987 6.24737C51.5495 6.2216 51.4987 6.19773 51.4474 6.17462C51.4188 6.16167 51.3913 6.1472 51.3623 6.13539C51.2865 6.10391 51.2091 6.07573 51.1301 6.05034C51.098 6.03993 51.0649 6.0318 51.0323 6.02253C50.9791 6.00743 50.9255 5.99295 50.8711 5.98102C50.8366 5.97328 50.8018 5.96642 50.7669 5.95995C50.709 5.94953 50.6508 5.94065 50.5916 5.93341C50.5611 5.92948 50.5308 5.92529 50.5001 5.92224C50.4103 5.91437 50.3194 5.90878 50.2272 5.90878H26.591H2.95459C2.86243 5.90878 2.77165 5.91424 2.68177 5.92237C2.65105 5.92554 2.62071 5.9296 2.59024 5.93354C2.53121 5.94078 2.47281 5.94966 2.41492 5.96007C2.37988 5.96655 2.34522 5.97353 2.31069 5.98115C2.25635 5.99321 2.20278 6.0073 2.14958 6.02253C2.11683 6.03193 2.08382 6.04005 2.05145 6.05046C1.97287 6.07585 1.8953 6.10378 1.81938 6.13552C1.79056 6.14758 1.76288 6.16167 1.73432 6.17475C1.68316 6.19786 1.63225 6.2216 1.58299 6.24749C1.55087 6.26438 1.51952 6.28253 1.48829 6.30069C1.44284 6.32684 1.39764 6.35388 1.35359 6.38244C1.32477 6.40111 1.29608 6.41952 1.26789 6.43919C1.218 6.47385 1.16976 6.51029 1.12228 6.54812C1.10235 6.56386 1.08204 6.57846 1.06261 6.59458C0.996215 6.64994 0.932358 6.70783 0.870912 6.76889C0.85974 6.78006 0.849584 6.792 0.838412 6.80355C0.788774 6.85433 0.741166 6.90651 0.694955 6.9611C0.676674 6.98281 0.658901 7.00566 0.641127 7.02826C0.604692 7.07396 0.569653 7.12106 0.535883 7.16905C0.517348 7.19545 0.498813 7.22186 0.481293 7.24877C0.45057 7.29587 0.421625 7.34475 0.393188 7.3935C0.377065 7.42206 0.360053 7.44923 0.344692 7.47818C0.312826 7.53861 0.283373 7.60094 0.255444 7.66353C0.236147 7.70707 0.218627 7.75113 0.201488 7.79594C0.18435 7.84012 0.166196 7.88354 0.151088 7.92912C0.148676 7.93597 0.147153 7.94333 0.144994 7.95044C0.132553 7.98866 0.122524 8.02725 0.111479 8.06572C0.0978947 8.11459 0.0846916 8.16347 0.0736467 8.21311C0.0655217 8.2498 0.0580314 8.28585 0.0514299 8.32242C0.040385 8.3817 0.0313713 8.44163 0.024008 8.50205C0.0204533 8.5296 0.0162639 8.55703 0.0135978 8.58483C0.00509198 8.67484 1.38602e-05 8.76599 -0.000240046 8.85803C-0.00176348 9.77222 0.421879 10.657 1.18144 11.227L2.95421 12.5566L5.90879 14.7725L24.8178 28.9543C25.3432 29.3483 25.9668 29.5453 26.5906 29.5453C27.2144 29.5453 27.838 29.3483 28.3634 28.9543L47.2724 14.7725L50.227 12.5566L52 11.2272C52.7596 10.6572 53.1832 9.77247 53.1817 8.85803C53.1814 8.76612 53.1764 8.67496 53.1679 8.58496Z" fill="#F2D23D"/>
<path d="M62.0455 17.7272H53.1818V20.6818V23.6364V44.3182C53.1818 45.9499 51.859 47.2728 50.2273 47.2728H17.7273H14.7727H11.8182V56.1364C11.8182 57.7681 13.1411 59.091 14.7728 59.091H62.0456C63.6773 59.091 65.0002 57.7681 65.0002 56.1364V20.6818C65 19.0501 63.6772 17.7272 62.0455 17.7272Z" fill="#F2D23D"/>
<path d="M24.8182 28.9546L5.90903 14.7728L2.95458 12.5568L1.18181 11.2272C0.422246 10.6572 -0.00139648 9.77248 0.000126953 8.85803C0.000253906 8.85994 0 8.86184 0 8.86362V44.3182C0 45.9499 1.32285 47.2728 2.95458 47.2728H11.8182H14.7728H17.7274H26.591V29.5454C25.9671 29.5454 25.3435 29.3485 24.8182 28.9546Z" fill="#F5DC60"/>
<path d="M1.18182 11.2272L2.95459 12.5568L5.90917 14.7728L24.8182 28.9546C25.3435 29.3485 25.9671 29.5455 26.591 29.5455V5.90903H2.95459C2.86242 5.90903 2.77165 5.91449 2.68177 5.92261C2.65105 5.92579 2.62096 5.92985 2.59024 5.93378C2.5312 5.94102 2.4728 5.94991 2.41491 5.96032C2.37988 5.96679 2.34522 5.97377 2.31069 5.98164C2.25635 5.99345 2.20278 6.0078 2.14958 6.02303C2.11683 6.03243 2.08382 6.04055 2.05145 6.05096C1.97286 6.07635 1.8953 6.10428 1.81938 6.13602C1.79056 6.14808 1.76288 6.16217 1.73432 6.17525C1.68316 6.19835 1.63225 6.22209 1.58299 6.24799C1.55087 6.26488 1.51951 6.28303 1.48803 6.30119C1.44258 6.32734 1.39739 6.35438 1.35333 6.38294C1.32451 6.40161 1.29582 6.42001 1.26764 6.43969C1.21775 6.47435 1.1695 6.51079 1.12202 6.54862C1.10209 6.56436 1.08178 6.57896 1.06236 6.59508C0.995959 6.65043 0.932102 6.70832 0.870657 6.76939C0.859485 6.78056 0.849328 6.79249 0.838157 6.80405C0.788518 6.85483 0.74091 6.90701 0.694953 6.9616C0.676672 6.9833 0.658899 7.00616 0.641125 7.02875C0.60469 7.07446 0.569651 7.12156 0.535881 7.16954C0.517346 7.19595 0.498811 7.22236 0.481291 7.24927C0.450569 7.29637 0.421623 7.34525 0.393186 7.394C0.377063 7.42231 0.360051 7.44973 0.34469 7.47868C0.312825 7.53911 0.283371 7.60144 0.255442 7.66403C0.236145 7.70757 0.218625 7.75162 0.201487 7.79644C0.184348 7.84062 0.166194 7.88404 0.151086 7.92961C0.148674 7.93647 0.147151 7.94383 0.144993 7.95094C0.132424 7.98915 0.122522 8.02775 0.111477 8.06621C0.0978929 8.11509 0.0846898 8.16397 0.0736449 8.21361C0.0655199 8.2503 0.0580296 8.28635 0.0514281 8.32291C0.0403832 8.3822 0.0313695 8.44212 0.0240062 8.50255C0.0204515 8.5301 0.0162621 8.55752 0.0135961 8.58533C0.0050902 8.67534 1.20708e-05 8.76649 -0.000241835 8.85853C-0.00138441 9.77246 0.422258 10.6572 1.18182 11.2272Z" fill="#EEBF00"/>
</g>
<defs>
<clipPath id="clip0_12_67">
<rect width="65" height="65" fill="white"/>
</clipPath>
</defs>
</svg>
