<svg width="65" height="65" viewBox="0 0 65 65" fill="none" xmlns="http://www.w3.org/2000/svg">
<g clip-path="url(#clip0_12_20)">
<path d="M65 0H0V65H65V0Z" fill="#1BD741"/>
<path d="M9.76917 55.2555L12.953 43.9474C10.9056 40.4691 9.82764 36.5116 9.82764 32.4461C9.82764 19.9284 20.0116 9.74448 32.5293 9.74448C45.0471 9.74448 55.2308 19.9284 55.2308 32.4461C55.2308 44.9639 45.0471 55.1478 32.5293 55.1478C28.6289 55.1478 24.8096 54.1494 21.4309 52.2536L9.76917 55.2555ZM22.027 48.1235L22.7219 48.5478C25.6678 50.3462 29.0592 51.2969 32.5293 51.2969C42.9236 51.2969 51.3799 42.8404 51.3799 32.4461C51.3799 22.0518 42.9236 13.5954 32.5293 13.5954C22.135 13.5954 13.6786 22.0518 13.6786 32.4461C13.6786 36.0679 14.7079 39.585 16.6551 42.6171L17.1231 43.3458L15.2896 49.8579L22.027 48.1235Z" fill="white"/>
<path d="M26.1522 21.8801L24.6791 21.7998C24.2164 21.7746 23.7626 21.9292 23.4128 22.233C22.6987 22.8531 21.5568 24.0521 21.2061 25.6144C20.6831 27.9439 21.4914 30.7965 23.5833 33.6491C25.6752 36.5016 29.5737 41.0657 36.4673 43.015C38.6887 43.6432 40.4362 43.2197 41.7845 42.3572C42.8523 41.6742 43.5884 40.5778 43.8537 39.3384L44.0889 38.2398C44.1637 37.8907 43.9864 37.5364 43.662 37.3869L38.6836 35.0922C38.3604 34.9433 37.9772 35.0374 37.7598 35.3191L35.8054 37.8527C35.6577 38.0441 35.405 38.12 35.1768 38.0399C33.8384 37.5695 29.355 35.6918 26.895 30.9531C26.7883 30.7476 26.8148 30.4981 26.9661 30.3228L28.834 28.162C29.0248 27.9414 29.073 27.6312 28.9584 27.363L26.8124 22.3424C26.6981 22.0751 26.4421 21.8959 26.1522 21.8801Z" fill="white"/>
</g>
<defs>
<clipPath id="clip0_12_20">
<rect width="65" height="65" rx="15" fill="white"/>
</clipPath>
</defs>
</svg>
