<svg width="65" height="65" viewBox="0 0 65 65" fill="none" xmlns="http://www.w3.org/2000/svg">
<g clip-path="url(#clip0_12_41)">
<path d="M56.8509 50.8585C54.7946 46.9724 47.2098 42.5273 47.2098 42.5273C45.4937 41.549 43.4234 41.4396 42.444 43.1838C42.444 43.1838 39.9803 46.1393 39.3531 46.564C36.4897 48.5043 33.8375 48.4296 31.1605 45.7515L24.9386 39.5296L18.7167 33.3077C16.0386 30.6295 15.9638 27.9785 17.9042 25.1151C18.3288 24.4878 21.2843 22.0242 21.2843 22.0242C23.0275 21.0448 22.9192 18.9744 21.9409 17.2584C21.9409 17.2584 17.4957 9.67356 13.6096 7.61729C11.9564 6.74192 9.92609 7.04743 8.60328 8.37025L5.85472 11.1188C-2.86113 19.8347 1.43017 29.6761 10.146 38.392L18.1122 46.3581L26.0783 54.3243C34.7942 63.0402 44.6357 67.3325 53.3515 58.6156L56.1001 55.867C57.4207 54.5431 57.7262 52.5118 56.8509 50.8585Z" fill="#52C306"/>
<path d="M42.9607 64.4724C41.8188 64.4724 40.6552 64.3348 39.4678 64.0607C34.9913 63.0261 30.2276 60.0077 25.3101 55.0892L9.37892 39.1558C-1.44738 28.3306 -2.93161 18.371 5.08654 10.3518L7.83509 7.60321C9.50459 5.93263 12.0245 5.55452 14.1144 6.6585C18.2269 8.83394 22.6862 16.3884 22.8736 16.7091C23.6688 18.1034 23.918 19.5346 23.581 20.7512C23.3275 21.6667 22.749 22.4109 21.9061 22.9136C20.5844 24.0187 19.0395 25.3892 18.7979 25.725C17.0612 28.2862 17.266 30.3262 19.4815 32.5417L31.9253 44.9855C34.1387 47.1989 36.1765 47.4047 38.7452 45.6669C39.0757 45.4275 40.4461 43.8837 41.5534 42.5609C42.055 41.718 42.8003 41.1395 43.7147 40.886C44.9324 40.5469 46.3636 40.7971 47.746 41.5858C48.0786 41.7808 55.6331 46.2411 57.8085 50.3526C58.9136 52.4392 58.5333 54.9624 56.8638 56.6319L54.1152 59.3805C50.7275 62.7671 46.9876 64.4724 42.9607 64.4724ZM11.6107 8.20016C10.7895 8.20016 9.98128 8.52084 9.36808 9.13404L6.61953 11.8826C-0.496159 18.9994 0.947995 27.66 10.9119 37.6239L26.8431 53.5562C36.807 63.5212 45.4676 64.9632 52.5844 57.8475L55.333 55.0989C56.3253 54.1065 56.5507 52.606 55.8952 51.3656C54.3265 48.4014 48.6983 44.6551 46.6637 43.4612C45.823 42.9812 44.9303 42.8014 44.2965 42.9736C43.9065 43.0831 43.6096 43.3247 43.3908 43.7147L43.2781 43.8783C42.5078 44.8024 40.6422 46.9995 39.9629 47.461C36.5503 49.7719 33.3326 49.4555 30.3956 46.5185L17.9496 34.0736C15.0114 31.1366 14.694 27.9167 17.006 24.5062C17.4664 23.8269 19.6657 21.9613 20.5898 21.19L20.7523 21.0773C21.1423 20.8585 21.385 20.5616 21.4934 20.1716C21.6699 19.5346 21.4847 18.6451 20.9982 17.7925C20.9625 17.7307 16.6701 10.4601 13.1014 8.57176C12.628 8.32258 12.1156 8.20016 11.6107 8.20016Z" fill="#388F04"/>
<path d="M43.3334 52.553C43.2966 52.553 43.2586 52.5508 43.2207 52.5475C35.7508 51.7718 30.8603 47.0255 30.6545 46.824C30.2287 46.4047 30.2244 45.72 30.6426 45.2943C31.0608 44.8663 31.7466 44.8609 32.1745 45.2802C32.2189 45.3235 36.754 49.6972 43.4439 50.3916C44.0387 50.4544 44.4709 50.9864 44.4103 51.5823C44.3518 52.138 43.8816 52.553 43.3334 52.553Z" fill="#388F04"/>
<path d="M19.4966 35.2188C19.254 35.2188 19.0113 35.1375 18.8087 34.9707C18.5606 34.767 12.7006 29.8625 11.9194 22.3297C11.8577 21.7338 12.291 21.2019 12.8858 21.1391C13.4838 21.086 14.0136 21.5107 14.0765 22.1054C14.7644 28.7358 20.1348 33.2546 20.1889 33.299C20.6494 33.6814 20.7144 34.3629 20.3341 34.8244C20.1174 35.0844 19.8087 35.2188 19.4966 35.2188Z" fill="#388F04"/>
<path d="M29.6437 0.527618C29.0446 0.527618 28.5603 1.01189 28.5603 1.61101C28.5603 2.21012 29.0446 2.69439 29.6437 2.69439C47.9443 2.69439 62.8333 17.5834 62.8333 35.884C62.8333 36.4831 63.3175 36.9674 63.9167 36.9674C64.5158 36.9674 65 36.4831 65 35.884C65 16.3884 49.1392 0.527618 29.6437 0.527618Z" fill="#388F04" fill-opacity="0.99"/>
<path d="M29.6437 8.14383C29.0446 8.14383 28.5603 8.6281 28.5603 9.22722C28.5603 9.82633 29.0446 10.3106 29.6437 10.3106C43.7451 10.3106 55.216 21.7826 55.216 35.8829C55.216 36.482 55.7002 36.9663 56.2994 36.9663C56.8985 36.9663 57.3827 36.482 57.3827 35.8829C57.3838 20.5887 44.939 8.14383 29.6437 8.14383Z" fill="#388F04" fill-opacity="0.66"/>
<path d="M29.6437 15.76C29.0446 15.76 28.5603 16.2443 28.5603 16.8434C28.5603 17.4425 29.0446 17.9268 29.6437 17.9268C39.5459 17.9268 47.6008 25.9829 47.6008 35.884C47.6008 36.4831 48.0851 36.9673 48.6842 36.9673C49.2833 36.9673 49.7676 36.4831 49.7676 35.884C49.7676 24.7879 40.7397 15.76 29.6437 15.76Z" fill="#388F04" fill-opacity="0.33"/>
</g>
<defs>
<clipPath id="clip0_12_41">
<rect width="65" height="65" fill="white"/>
</clipPath>
</defs>
</svg>
