<svg width="65" height="65" viewBox="0 0 65 65" fill="none" xmlns="http://www.w3.org/2000/svg">
<g clip-path="url(#clip0_12_11)">
<path d="M64.981 0H0.019043C0.00852583 0 0 0.00852583 0 0.019043V64.981C0 64.9915 0.00852583 65 0.019043 65H64.981C64.9915 65 65 64.9915 65 64.981V0.019043C65 0.00852583 64.9915 0 64.981 0Z" fill="#37AEE2"/>
<path d="M25.2637 51.2891C23.8672 51.2891 23.9941 50.7812 23.6133 49.5117L19.5508 36.1816L50.6543 17.9004" fill="#C8DAEA"/>
<path d="M25.2637 51.2891C26.1523 51.2891 26.6602 50.7812 27.2949 50.2734L33.0078 44.8145L25.8984 40.498" fill="#A9C9DD"/>
<path d="M25.8985 40.4981L43.0371 53.0664C44.8145 54.209 46.3379 53.5742 46.8457 51.2891L53.8281 18.5352C54.4629 15.7422 52.6856 14.4727 50.7813 15.3613L10.0293 31.1035C7.3633 32.1192 7.3633 33.7695 9.5215 34.4043L20.0586 37.7051L44.1797 22.3438C45.3223 21.709 46.3379 21.9629 45.5762 22.8516" fill="#F6FBFE"/>
</g>
<defs>
<clipPath id="clip0_12_11">
<rect width="65" height="65" rx="15" fill="white"/>
</clipPath>
</defs>
</svg>
